<svg height="512pt" viewBox="0 -25 512 512" width="512pt" xmlns="http://www.w3.org/2000/svg"><path d="m512 289.136719c0-.015625-.003906-.027344-.003906-.039063v-248.464844c0-22.40625-18.226563-40.632812-40.628906-40.632812h-430.734376c-22.402343 0-40.62890575 18.226562-40.62890575 40.632812v248.472657c0 .011719-.00390625.019531-.00390625.03125 0 .007812 0 .019531.00390625.027343v33.105469c0 22.40625 18.22656275 40.632813 40.62890575 40.632813h52.78125c4.144532 0 7.5-3.355469 7.5-7.5 0-4.140625-3.355468-7.5-7.5-7.5h-52.78125c-14.132812 0-25.628906-11.5-25.628906-25.632813v-25.632812h481.992188v25.632812c0 14.132813-11.496094 25.632813-25.628906 25.632813h-153.398438c-.003906 0-.007812 0-.011719 0h-45.371093c-.007813 0-.011719 0-.019532 0-.003906 0-.011718 0-.019531 0h-33.09375c-.007813 0-.011719 0-.019531 0-.003906 0-.011719 0-.019532 0h-115.949218c-4.140625 0-7.5 3.359375-7.5 7.5 0 4.144531 3.359375 7.5 7.5 7.5h61.914062l-6.410156 51.269531h-38.933594c-4.140625 0-7.5 3.355469-7.5 7.5v33.128906c0 4.144531 3.359375 7.5 7.5 7.5h231.933594c4.140625 0 7.5-3.355469 7.5-7.5v-33.128906c0-4.144531-3.359375-7.5-7.5-7.5h-38.9375l-6.410156-51.269531h144.742187c22.40625 0 40.632813-18.226563 40.632813-40.632813v-33.09375c0-.015625.003906-.027343.003906-.039062zm-265.066406 73.765625h18.132812v18.132812h-18.132812zm117.535156 84.398437h-216.933594v-18.132812h216.933594zm-46.554688-33.128906h-123.828124l6.410156-51.269531h31.4375v25.632812c0 4.144532 3.359375 7.5 7.5 7.5h33.132812c4.144532 0 7.5-3.355468 7.5-7.5v-25.632812h31.4375zm145.953126-132.535156h-415.734376v-233.503907h415.734376zm15 0v-241.003907c0-4.140624-3.359376-7.5-7.5-7.5h-430.734376c-4.140624 0-7.5 3.359376-7.5 7.5v241.003907h-18.128906v-241.003907c0-14.136718 11.496094-25.632812 25.628906-25.632812h430.734376c14.132812 0 25.628906 11.496094 25.628906 25.632812v241.003907zm0 0"/><path d="m272.566406 329.769531c4.144532 0 7.5-3.359375 7.5-7.5 0-4.144531-3.355468-7.5-7.5-7.5h-33.132812c-4.140625 0-7.5 3.355469-7.5 7.5 0 4.140625 3.359375 7.5 7.5 7.5zm0 0"/><path d="m256 263.503906c54.378906 0 98.617188-44.242187 98.617188-98.617187 0-54.378907-44.238282-98.617188-98.617188-98.617188s-98.617188 44.238281-98.617188 98.617188c0 54.375 44.238282 98.617187 98.617188 98.617187zm-68.328125-50.511718 60.828125-35.117188v70.273438c-25.101562-2.242188-47.035156-15.621094-60.828125-35.15625zm-15.289063-48.105469c0-12.546875 2.796876-24.445313 7.765626-35.132813l60.851562 35.132813-60.851562 35.128906c-4.96875-10.6875-7.765626-22.585937-7.765626-35.128906zm167.234376 0c0 12.542969-2.796876 24.441406-7.765626 35.128906l-60.851562-35.128906 60.851562-35.132813c4.96875 10.6875 7.765626 22.585938 7.765626 35.132813zm-76.117188 83.261719v-70.273438l60.828125 35.117188c-13.792969 19.535156-35.726563 32.914062-60.828125 35.15625zm60.828125-131.371094-60.828125 35.117187v-70.273437c25.101562 2.242187 47.035156 15.621094 60.828125 35.15625zm-75.828125-35.15625v70.273437l-60.828125-35.117187c13.792969-19.535156 35.726563-32.914063 60.828125-35.15625zm0 0"/><path d="m73.765625 263.503906h33.132813c4.144531 0 7.5-3.359375 7.5-7.5v-33.136718c0-4.140626-3.355469-7.5-7.5-7.5h-33.132813c-4.140625 0-7.5 3.359374-7.5 7.5v33.136718c0 4.140625 3.359375 7.5 7.5 7.5zm7.5-33.136718h18.132813v18.136718h-18.132813zm0 0"/></svg>