<svg height="512pt" viewBox="-44 0 512 512.00105" width="512pt" xmlns="http://www.w3.org/2000/svg"><path d="m395.75 346.152344c-.019531-.019532-.035156-.035156-.054688-.054688l-22.25-22.25c31.832032-34.421875 51.320313-80.421875 51.320313-130.890625 0-24.519531-4.539063-48.414062-13.492187-71.019531-1.542969-3.902344-5.957032-5.8125-9.859376-4.265625-3.898437 1.542969-5.808593 5.960937-4.265624 9.859375 8.246093 20.816406 12.425781 42.828125 12.425781 65.425781 0 22.480469-4.207031 43.996094-11.855469 63.8125-11.871094-4.199219-19.746094-13.550781-24.523438-29-5.3125-17.1875-6.023437-39.132812-6.710937-60.351562-.988281-30.425781-1.921875-59.164063-16.535156-73.78125-6.332031-6.328125-17.476563-11.890625-34.648438-2.449219-10.34375 5.6875-20.863281 15.367188-32 25.617188-26.226562 24.136718-44.476562 38.890624-58.683593 24.683593-26.339844-26.339843-11.546876-63.511719 2.757812-99.457031 3.699219-9.292969 7.214844-18.160156 10.011719-26.75 58.558593 1.804688 112.070312 32 143.988281 81.558594 2.269531 3.523437 6.972656 4.542968 10.5 2.273437 3.523438-2.273437 4.542969-6.972656 2.273438-10.5-35.738282-55.488281-96.421876-88.613281-162.335938-88.613281-50.472656 0-96.472656 19.488281-130.894531 51.320312l-22.234375-22.234374c-.015625-.015626-.03125-.035157-.046875-.050782-.015625-.019531-.035157-.03125-.050781-.046875l-22.160157-22.160156c-2.96875-2.96875-7.777343-2.96875-10.742187 0-2.96875 2.964844-2.96875 7.777344 0 10.742187l16.933594 16.933594c-40.429688 43.109375-62.617188 99.074219-62.617188 158.453125 0 61.921875 24.113281 120.132813 67.894531 163.917969 37.582031 37.578125 85.796875 60.648438 137.859375 66.4375v33.457031h-82.523437c-15.226563 0-27.617188 12.386719-27.617188 27.617188 0 15.226562 12.390625 27.613281 27.617188 27.613281h180.238281c15.230469 0 27.617188-12.386719 27.617188-27.613281 0-15.230469-12.386719-27.617188-27.617188-27.617188h-82.523438v-32.257812c3.609376.164062 7.230469.257812 10.863282.257812 59.382812 0 115.34375-22.1875 158.449218-62.621093l16.945313 16.941406c1.480469 1.484375 3.425781 2.226562 5.371094 2.226562 1.941406 0 3.886719-.742187 5.371093-2.226562 2.964844-2.964844 2.964844-7.777344 0-10.742188zm-79.855469 138.230468c0 6.851563-5.574219 12.425782-12.425781 12.425782h-180.238281c-6.851563 0-12.425781-5.574219-12.425781-12.425782 0-6.847656 5.574218-12.421874 12.425781-12.421874h180.238281c6.851562 0 12.425781 5.574218 12.425781 12.421874zm-120.390625-389.53125c-2.738281 23.511719 3.269532 42.28125 18.367188 57.378907 11.597656 11.59375 25.78125 13.28125 42.164062 5.019531 12.730469-6.417969 25.347656-18.035156 37.554688-29.265625 24.921875-22.941406 37.425781-31.792969 45.613281-23.605469 10.371094 10.371094 11.246094 37.394532 12.097656 63.53125.71875 22.226563 1.464844 45.207032 7.378907 64.34375 6.058593 19.601563 17.136718 32.476563 32.964843 38.449219-13.507812 27.660156-33.992187 51.3125-59.144531 68.664063-2.867188-21.140626-13.351562-61.285157-51.675781-73.644532-26.445313-8.535156-50.101563 6.167969-70.972657 19.136719-23.394531 14.53125-34.671874 19.875-44.484374 10.066406-11.980469-11.984375-10.042969-25.753906-5.882813-47.222656.640625-3.308594 1.300781-6.726563 1.894531-10.203125.703125-4.132812-2.078125-8.058594-6.214844-8.761719-4.132812-.707031-8.058593 2.078125-8.761718 6.214844-.566406 3.304687-1.210938 6.636719-1.835938 9.859375-4.050781 20.921875-8.238281 42.558594 10.058594 60.855469 8.800781 8.800781 19.679688 11.457031 32.335938 7.886719 10.046874-2.832032 20.179687-9.125 30.90625-15.789063 18.953124-11.777344 38.554687-23.953125 58.292968-17.585937 34.582032 11.15625 40.859375 54.191406 41.984375 68.117187-25.578125 14.273437-55.019531 22.421875-86.332031 22.421875-96.941406 0-175.992188-78-177.722656-174.535156 14.617187-13.230469 43.699218-28.234375 65.351562-24.566406 10.53125 1.78125 18.078125 7.683593 23.078125 18.042968 3.027344 6.265625 4.816407 12.765625 5.472657 19.867188.363281 3.941406 3.671874 6.898437 7.554687 6.898437.230469 0 .46875-.011719.703125-.03125 4.179688-.386719 7.253906-4.085937 6.867188-8.261719-.824219-8.941406-3.085938-17.144531-6.914063-25.078124-7.09375-14.691407-18.929687-23.828126-34.226563-26.417969-22.691406-3.847657-49.003906 7.1875-67.148437 19.703125 1.300781-13.984375 4.21875-27.503906 8.582031-40.367188 26.152344-1.46875 54.390625-13.324218 76.585938-32.351562 25.492187-21.855469 40.1875-50.523438 41.800781-81.257813 12.632813-3.710937 25.84375-6.050781 39.464844-6.851562-2.351563 6.675781-5.121094 13.652343-8.003907 20.902343-7.609374 19.121094-15.480468 38.894532-17.753906 58.4375zm-29.421875-67.058593c-2.9375 24.191406-15.449219 46.699219-35.972656 64.296875-17.714844 15.1875-39.601563 25.226562-60.449219 28.039062 18.898438-41.910156 53.578125-75.226562 96.421875-92.335937zm65.726563 381.683593c-55.464844-.007812-110.945313-21.121093-153.171875-63.34375-40.914063-40.914062-63.445313-95.3125-63.445313-153.175781 0-55.320312 20.609375-107.46875 58.175782-147.703125l16.808593 16.808594c-31.832031 34.421875-51.320312 80.421875-51.320312 130.890625 0 106.398437 86.558593 192.957031 192.957031 192.957031 50.46875 0 96.46875-19.488281 130.890625-51.320312l16.804687 16.804687c-41.492187 38.71875-94.578124 58.085938-147.699218 58.082031zm0 0"/></svg>